<?xml version="1.0" encoding="utf-8"?>
<!-- Generator: Adobe Illustrator 19.0.0, SVG Export Plug-In . SVG Version: 6.00 Build 0)  -->
<!DOCTYPE svg PUBLIC "-//W3C//DTD SVG 1.1//EN" "http://www.w3.org/Graphics/SVG/1.1/DTD/svg11.dtd">
<svg version="1.1" id="Layer_1" xmlns="http://www.w3.org/2000/svg" xmlns:xlink="http://www.w3.org/1999/xlink" x="0px" y="0px"
	 viewBox="0 0 841.9 595.3" style="enable-background:new 0 0 841.9 595.3;" xml:space="preserve">
<style type="text/css">
	.st0{fill:#FFFFFF;}
	.st1{fill:#DA1F26;}
	.st2{fill:none;stroke:#CE3938;stroke-width:4.103;stroke-miterlimit:10;}
</style>
<g>
	<g>
		
			<image style="overflow:visible;" width="580" height="724" id="XMLID_18_" xlink:href="5D77C765DC4C49EC.png"  transform="matrix(0.24 0 0 0.24 348.3717 220.8047)">
		</image>
	</g>
	<path class="st0" d="M417.9,354.3c17.3,0,29.5-10.7,29.5-25.9v-44c0-2.5-1.9-4.6-4.3-4.6c-2.3,0-4.2,2-4.3,4.4V305l0,0.1v4.9
		c0,1.1-0.9,2.1-2,2.1c-1.1,0-2.1-0.9-2.1-2.1v-25.7l0-0.2v-12.2c0-2.5-1.9-4.6-4.3-4.6c-2.2,0-4.1,1.9-4.2,4.3v34.2l-0.1,0.3v3.3
		c0,1.1-0.9,2.1-2,2.1c-1.1,0-2.1-1-2.1-2.1v-37.5l0.1-0.6v-5.8c0-2.5-1.9-4.6-4.3-4.6c-2.3,0-4.3,2-4.3,4.6v44.3
		c0,1.1-0.9,2.1-2,2.1c-1.1,0-2-0.9-2-2.1v-31.5c0-2.5-1.9-4.5-4.2-4.5c-2.3,0-4.2,2-4.2,4.5v38.9c0,1.1-0.9,2.1-2,2.1
		c-1.1,0-2-0.9-2-2.1v-1.5l-0.1-0.5v-12.2c0-2.5-1.9-4.6-4.3-4.6c-2.3,0-4.3,2-4.3,4.6v11.6l0,0.2v13.5
		C388.5,343.7,400.6,354.3,417.9,354.3L417.9,354.3z"/>
</g>
<path d="M384.4,307.3v-4.2c0-4.8,3.8-8.7,8.4-8.7c1.6,0,3.1,0.5,4.4,1.3v-17.4c0-4.8,3.7-8.7,8.3-8.7c1.5,0,3,0.5,4.2,1.2v-5.3
	c0-4.8,3.8-8.7,8.4-8.7c4.3,0,7.8,3.4,8.3,7.7c1.3-0.8,2.7-1.3,4.3-1.3c4.6,0,8.4,3.9,8.4,8.7v5c1.3-0.8,2.7-1.2,4.3-1.2
	c4.6,0,8.4,3.9,8.4,8.7v44c0,17.7-13.8,30.1-33.6,30.1c-19.8,0-33.6-12.4-33.6-30.1v-20.9L384.4,307.3z M417.9,354.3
	c17.3,0,29.5-10.7,29.5-25.9v-44c0-2.5-1.9-4.6-4.3-4.6c-2.3,0-4.2,2-4.3,4.4V305l0,0.1v4.9c0,1.1-0.9,2.1-2,2.1
	c-1.1,0-2.1-0.9-2.1-2.1v-25.7l0-0.2v-12.2c0-2.5-1.9-4.6-4.3-4.6c-2.2,0-4.1,1.9-4.2,4.3v34.2l-0.1,0.3v3.3c0,1.1-0.9,2.1-2,2.1
	c-1.1,0-2.1-1-2.1-2.1v-37.5l0.1-0.6v-5.8c0-2.5-1.9-4.6-4.3-4.6c-2.3,0-4.3,2-4.3,4.6v44.3c0,1.1-0.9,2.1-2,2.1c-1.1,0-2-0.9-2-2.1
	v-31.5c0-2.5-1.9-4.5-4.2-4.5c-2.3,0-4.2,2-4.2,4.5v38.9c0,1.1-0.9,2.1-2,2.1c-1.1,0-2-0.9-2-2.1v-1.5l-0.1-0.5v-12.2
	c0-2.5-1.9-4.6-4.3-4.6c-2.3,0-4.3,2-4.3,4.6v11.6l0,0.2v13.5C388.5,343.7,400.6,354.3,417.9,354.3L417.9,354.3z M417.9,354.3"/>
<path class="st1" d="M400.4,323.6v7.2c0,0.4-0.1,0.7-0.3,0.8c-0.2,0.2-0.4,0.3-0.7,0.3c-0.3,0-0.5-0.1-0.7-0.3
	c-0.2-0.2-0.3-0.5-0.3-0.8v-7.2c0-0.4,0.1-0.7,0.3-0.8c0.2-0.2,0.4-0.3,0.7-0.3c0.3,0,0.5,0.1,0.7,0.3
	C400.3,322.9,400.4,323.2,400.4,323.6z"/>
<circle class="st2" cx="417.9" cy="307.6" r="75.3"/>
</svg>
